<svg viewBox="0 0 276 80" width="276" height="80" xmlns="http://www.w3.org/2000/svg"><g fill="#373D44" fill-rule="evenodd" transform="translate(0, 29)"><path d="M73.25 39.464c1.773 0 3.39-.36 4.85-1.08 1.462-.721 2.619-1.673 3.473-2.858v3.079c0 .315.255.57.57.57h6.734a.57.57 0 0 0 .571-.57V12.95a.57.57 0 0 0-.57-.571h-6.735a.57.57 0 0 0-.57.57v13.98c0 1.793-.476 3.186-1.429 4.178-.952.993-2.248 1.489-3.89 1.489-1.609 0-2.889-.496-3.841-1.489-.952-.992-1.428-2.385-1.428-4.178V12.95a.57.57 0 0 0-.571-.57h-6.48a.57.57 0 0 0-.57.57v14.842c0 2.337-.008 4.74.878 6.47.887 1.728 1.835 2.92 3.443 3.833 1.609.913 3.464 1.369 5.565 1.369Zm28.516 7.409V36.198c.935.937 1.962 1.441 3.423 2.21 1.46.768 3.143 1.152 5.047 1.152 2.266 0 3.89-.739 5.728-1.875 1.838-1.137 3.29-2.753 4.358-4.85 1.067-2.097 1.779-4.352 1.779-7.105s-.712-5.03-1.78-7.112c-1.066-2.08-2.519-3.681-4.357-4.802-1.839-1.12-3.462-1.82-5.728-1.82-1.937 0-3.627.384-5.072 1.152-1.444.769-2.577 1.777-3.398 3.026V13.73a1.142 1.142 0 0 0-1.332-1.126l-5.854.99a.57.57 0 0 0-.476.564v32.903a1.142 1.142 0 0 0 1.287 1.133l5.877-.756a.57.57 0 0 0 .498-.566Zm6.153-14.468c-1.729 0-3.194-.593-4.397-1.777-1.204-1.185-1.805-2.801-1.805-4.85 0-2.05.601-3.666 1.805-4.85 1.203-1.185 2.668-1.777 4.397-1.777 1.762 0 3.245.584 4.448 1.753 1.203 1.168 1.804 2.777 1.804 4.826 0 2.049-.61 3.673-1.83 4.874-1.22 1.2-2.694 1.8-4.422 1.8Zm25.261 6.77V3.64h-7.834v35.536h7.834Zm17.1.385c2.58 0 4.914-.56 7.006-1.68 2.09-1.121 3.742-2.73 4.952-4.827 1.211-2.097 1.817-4.522 1.817-7.275s-.598-5.179-1.793-7.275c-1.195-2.097-2.83-3.706-4.906-4.827-2.075-1.12-4.402-1.68-6.981-1.68-2.579 0-4.906.56-6.981 1.68-2.076 1.12-3.711 2.73-4.906 4.827-1.195 2.096-1.793 4.522-1.793 7.275 0 2.785.59 5.218 1.77 7.299 1.178 2.08 2.798 3.682 4.858 4.802 2.06 1.12 4.379 1.68 6.958 1.68Zm-.003-7.107c-1.608 0-2.946-.577-4.013-1.729-1.067-1.153-1.6-2.801-1.6-4.946 0-2.177.541-3.834 1.624-4.97 1.084-1.137 2.446-1.705 4.088-1.705 1.608 0 2.963.576 4.063 1.729 1.1 1.152 1.65 2.8 1.65 4.946 0 2.145-.567 3.793-1.7 4.946-1.132 1.152-2.503 1.729-4.112 1.729Zm28.63 7.107c1.878 0 3.525-.384 4.942-1.153 1.416-.768 2.522-1.776 3.318-3.025v3.223c0 .315.256.57.57.57h6.142a.57.57 0 0 0 .57-.567l.134-25.253a.57.57 0 0 0-.537-.573l-5.67-.332a1.142 1.142 0 0 0-1.209 1.14v2.584c-.764-1.249-1.854-2.257-3.27-3.026-1.417-.768-3.064-1.152-4.942-1.152-2.197 0-4.186.56-5.969 1.68-1.782 1.12-3.19 2.722-4.225 4.803-1.035 2.08-1.552 4.498-1.552 7.25 0 2.754.517 5.18 1.552 7.276 1.034 2.097 2.443 3.714 4.225 4.85 1.783 1.137 3.756 1.705 5.92 1.705Zm1.996-7.155c-1.675 0-3.095-.6-4.26-1.801-1.165-1.2-1.748-2.825-1.748-4.874 0-2.05.583-3.658 1.748-4.826 1.165-1.169 2.585-1.753 4.26-1.753 1.674 0 3.094.592 4.26 1.777 1.165 1.184 1.748 2.8 1.748 4.85 0 2.049-.583 3.665-1.749 4.85-1.165 1.184-2.585 1.777-4.26 1.777Zm28.583 7.155c1.937 0 3.636-.384 5.097-1.153 1.461-.768 2.585-1.792 3.373-3.073v3.27c0 .316.256.572.571.572h6.525a.57.57 0 0 0 .571-.571V5.31a.57.57 0 0 0-.484-.565l-5.867-.903a1.142 1.142 0 0 0-1.316 1.129v11.106c-.853-1.248-2.027-2.24-3.52-2.977-1.494-.736-3.144-1.104-4.95-1.104-2.265 0-4.317.56-6.156 1.68-1.838 1.12-3.057 2.722-4.124 4.803-1.067 2.08-1.6 4.498-1.6 7.25 0 2.754.533 5.18 1.6 7.276 1.067 2.097 2.286 3.714 4.124 4.85 1.839 1.137 3.89 1.705 6.156 1.705Zm33.172-27.06c2.538 0 4.794.533 6.768 1.598 1.974 1.065 3.517 2.585 4.63 4.559 1.112 1.974 1.668 4.277 1.668 6.909 0 .342-.022.817-.066 1.422a1 1 0 0 1-.998.928h-17.266c.125 1.63.65 2.875 1.574 3.737.925.861 1.712 1.194 3.408 1.292 1.9.11 3.491-.524 4.773-1.901a2 2 0 0 1 1.464-.637h5.822a.5.5 0 0 1 .475.658c-.513 1.537-1.236 2.868-2.17 3.995-1.6 1.927-2.578 2.46-4.301 3.243-1.724.783-3.65 1.175-5.781 1.175-2.57 0-4.857-.548-6.862-1.645-2.006-1.097-3.572-2.663-4.7-4.7-1.128-2.037-1.692-4.418-1.692-7.144s.556-5.107 1.668-7.144c1.113-2.037 2.671-3.603 4.677-4.7 2.005-1.097 4.308-1.645 6.909-1.645Zm23.879.376a.5.5 0 0 1 .5.5v2.505a19.558 19.558 0 0 1 3.925-2.226c.877-.365 2.13-.612 3.76-.741a.5.5 0 0 1 .54.498v6.668a.5.5 0 0 1-.412.493 195.63 195.63 0 0 0-3.473.645c-1.186.234-2.135.573-2.836 1.176-1.003.861-1.504 2.373-1.504 4.535v11.673a.5.5 0 0 1-.5.5H259.5a.5.5 0 0 1-.5-.5V13.376a.5.5 0 0 1 .5-.5Zm-55.025 6.275c1.79 0 3.31.592 4.556 1.777 1.246 1.184 1.87 2.8 1.87 4.85 0 2.049-.624 3.665-1.87 4.85-1.247 1.184-2.765 1.777-4.556 1.777s-3.31-.6-4.557-1.801c-1.246-1.2-1.87-2.825-1.87-4.874 0-2.05.624-3.658 1.87-4.826 1.247-1.169 2.766-1.753 4.557-1.753Zm31.052-.212c-1.047 0-1.984 0-3.408 1.175-.81.669-1.346 1.578-1.606 2.727a.5.5 0 0 0 .488.61h8.893a.5.5 0 0 0 .493-.58c-.2-1.225-.645-2.128-1.335-2.71-1.193-1.006-2.478-1.222-3.525-1.222Z" fill-rule="nonzero"/><path d="m27.825 1.014 15.29 7.955a8.163 8.163 0 0 1 4.395 7.241v18.563a8.163 8.163 0 0 1-4.395 7.241l-15.29 7.956a8.163 8.163 0 0 1-7.535 0L5 42.014a8.163 8.163 0 0 1-4.395-7.24V16.21A8.163 8.163 0 0 1 5 8.969l15.29-7.955a8.163 8.163 0 0 1 7.535 0Zm-3.707 11.93L13.881 24.545a.41.41 0 0 0 .308.683h6.126l.897 10.048c.03.34.315.6.655.6h4.503c.34 0 .624-.26.654-.6l.897-10.049h6.127a.41.41 0 0 0 .308-.682L24.118 12.943Z"/></g></svg>