<svg viewBox="0 0 279 80" width="279" height="80" xmlns="http://www.w3.org/2000/svg"><g fill="#373D44" fill-rule="evenodd" transform="translate(0, 28)"><path d="M73.25 39.464c1.773 0 3.39-.36 4.85-1.08 1.462-.721 2.619-1.673 3.473-2.858v3.079c0 .315.255.57.57.57h6.734a.57.57 0 0 0 .571-.57V12.95a.57.57 0 0 0-.57-.571h-6.735a.57.57 0 0 0-.57.57v13.98c0 1.793-.476 3.186-1.429 4.178-.952.993-2.248 1.489-3.89 1.489-1.609 0-2.889-.496-3.841-1.489-.952-.992-1.428-2.385-1.428-4.178V12.95a.57.57 0 0 0-.571-.57h-6.48a.57.57 0 0 0-.57.57v14.842c0 2.337-.008 4.74.878 6.47.887 1.728 1.835 2.92 3.443 3.833 1.609.913 3.464 1.369 5.565 1.369Zm28.516 7.409V36.198c.935.937 1.962 1.441 3.423 2.21 1.46.768 3.143 1.152 5.047 1.152 2.266 0 3.89-.739 5.728-1.875 1.838-1.137 3.29-2.753 4.358-4.85 1.067-2.097 1.779-4.352 1.779-7.105s-.712-5.03-1.78-7.112c-1.066-2.08-2.519-3.681-4.357-4.802-1.839-1.12-3.462-1.82-5.728-1.82-1.937 0-3.627.384-5.072 1.152-1.444.769-2.577 1.777-3.398 3.026V13.73a1.142 1.142 0 0 0-1.332-1.126l-5.854.99a.57.57 0 0 0-.476.564v32.903a1.142 1.142 0 0 0 1.287 1.133l5.877-.756a.57.57 0 0 0 .498-.566Zm6.153-14.468c-1.729 0-3.194-.593-4.397-1.777-1.204-1.185-1.805-2.801-1.805-4.85 0-2.05.601-3.666 1.805-4.85 1.203-1.185 2.668-1.777 4.397-1.777 1.762 0 3.245.584 4.448 1.753 1.203 1.168 1.804 2.777 1.804 4.826 0 2.049-.61 3.673-1.83 4.874-1.22 1.2-2.694 1.8-4.422 1.8Zm25.261 6.77V3.64h-7.834v35.536h7.834Zm17.1.385c2.58 0 4.914-.56 7.006-1.68 2.09-1.121 3.742-2.73 4.952-4.827 1.211-2.097 1.817-4.522 1.817-7.275s-.598-5.179-1.793-7.275c-1.195-2.097-2.83-3.706-4.906-4.827-2.075-1.12-4.402-1.68-6.981-1.68-2.579 0-4.906.56-6.981 1.68-2.076 1.12-3.711 2.73-4.906 4.827-1.195 2.096-1.793 4.522-1.793 7.275 0 2.785.59 5.218 1.77 7.299 1.178 2.08 2.798 3.682 4.858 4.802 2.06 1.12 4.379 1.68 6.958 1.68Zm-.003-7.107c-1.608 0-2.946-.577-4.013-1.729-1.067-1.153-1.6-2.801-1.6-4.946 0-2.177.541-3.834 1.624-4.97 1.084-1.137 2.446-1.705 4.088-1.705 1.608 0 2.963.576 4.063 1.729 1.1 1.152 1.65 2.8 1.65 4.946 0 2.145-.567 3.793-1.7 4.946-1.132 1.152-2.503 1.729-4.112 1.729Zm28.63 7.107c1.878 0 3.525-.384 4.942-1.153 1.416-.768 2.522-1.776 3.318-3.025v3.223c0 .315.256.57.57.57h6.142a.57.57 0 0 0 .57-.567l.134-25.253a.57.57 0 0 0-.537-.573l-5.67-.332a1.142 1.142 0 0 0-1.209 1.14v2.584c-.764-1.249-1.854-2.257-3.27-3.026-1.417-.768-3.064-1.152-4.942-1.152-2.197 0-4.186.56-5.969 1.68-1.782 1.12-3.19 2.722-4.225 4.803-1.035 2.08-1.552 4.498-1.552 7.25 0 2.754.517 5.18 1.552 7.276 1.034 2.097 2.443 3.714 4.225 4.85 1.783 1.137 3.756 1.705 5.92 1.705Zm1.996-7.155c-1.675 0-3.095-.6-4.26-1.801-1.165-1.2-1.748-2.825-1.748-4.874 0-2.05.583-3.658 1.748-4.826 1.165-1.169 2.585-1.753 4.26-1.753 1.674 0 3.094.592 4.26 1.777 1.165 1.184 1.748 2.8 1.748 4.85 0 2.049-.583 3.665-1.749 4.85-1.165 1.184-2.585 1.777-4.26 1.777Zm28.583 7.155c1.937 0 3.636-.384 5.097-1.153 1.461-.768 2.585-1.792 3.373-3.073v3.27c0 .316.256.572.571.572h6.525a.57.57 0 0 0 .571-.571V5.31a.57.57 0 0 0-.484-.565l-5.867-.903a1.142 1.142 0 0 0-1.316 1.129v11.106c-.853-1.248-2.027-2.24-3.52-2.977-1.494-.736-3.144-1.104-4.95-1.104-2.265 0-4.317.56-6.156 1.68-1.838 1.12-3.057 2.722-4.124 4.803-1.067 2.08-1.6 4.498-1.6 7.25 0 2.754.533 5.18 1.6 7.276 1.067 2.097 2.286 3.714 4.124 4.85 1.839 1.137 3.89 1.705 6.156 1.705Zm41.812-26.622a.57.57 0 0 1 .57.571v28.77c0 3.188-.802 5.485-2.407 6.893-1.605 1.408-3.843 2.112-6.714 2.112h-1.96c-.631 0-1.143-.511-1.143-1.142v-4.89a.57.57 0 0 1 .571-.57h1.328c.864 0 1.482-.185 1.852-.525.37-.34.683-1.01.683-1.784V13.509a.57.57 0 0 1 .571-.57Zm-16.569 17.595c1.358 0 2.477.418 3.357 1.253.88.836 1.32 1.872 1.32 3.11 0 1.207-.44 2.22-1.32 3.04-.88.82-1.999 1.23-3.357 1.23-1.389 0-2.523-.41-3.403-1.23-.88-.82-1.32-1.833-1.32-3.04 0-1.238.44-2.274 1.32-3.11.88-.835 2.014-1.253 3.403-1.253Zm32.699-18.008c3.241 0 5.795.804 7.663 2.413 1.023.882 1.869 2.304 2.536 4.267a1.142 1.142 0 0 1-.953 1.502l-4.792.537a1.142 1.142 0 0 1-1.179-.69c-.27-.641-.568-1.09-.89-1.346-.664-.526-1.536-.789-2.617-.789-.926 0-1.636.178-2.13.534-.494.356-.74.843-.74 1.462 0 .743.393 1.3 1.18 1.671.787.371 2.014.743 3.681 1.114 1.914.495 3.473.982 4.677 1.462 1.204.48 2.261 1.253 3.172 2.32.91 1.068 1.381 2.5 1.412 4.294 0 1.516-.425 2.87-1.273 4.061-.85 1.191-2.069 2.127-3.658 2.808-1.59.68-3.435 1.021-5.534 1.021-2.253 0-4.26-.387-6.019-1.16-1.76-.774-3.149-1.834-4.167-3.18-.475-.627-.83-1.394-1.063-2.301a1.142 1.142 0 0 1 .947-1.415l5.017-.707c.434-.06.865.132 1.109.497.505.757.955 1.284 1.352 1.583.74.557 1.651.835 2.732.835.988 0 1.752-.193 2.292-.58.54-.387.81-.89.81-1.509 0-.742-.386-1.291-1.158-1.647-.771-.356-2.021-.75-3.75-1.184-1.852-.433-3.396-.89-4.63-1.369a8 8 0 0 1-3.195-2.274c-.895-1.037-1.343-2.437-1.343-4.2 0-1.486.409-2.84 1.227-4.062.818-1.222 2.022-2.189 3.612-2.9 1.59-.712 3.48-1.068 5.672-1.068Zm-55.916 6.626c1.79 0 3.31.592 4.556 1.777 1.246 1.184 1.87 2.8 1.87 4.85 0 2.049-.624 3.665-1.87 4.85-1.247 1.184-2.765 1.777-4.556 1.777s-3.31-.6-4.557-1.801c-1.246-1.2-1.87-2.825-1.87-4.874 0-2.05.624-3.658 1.87-4.826 1.247-1.169 2.766-1.753 4.557-1.753Zm36.374-17.533c1.359 0 2.478.41 3.357 1.23.88.82 1.32 1.848 1.32 3.086 0 1.207-.44 2.22-1.32 3.04-.88.82-1.998 1.23-3.357 1.23-1.389 0-2.523-.41-3.403-1.23-.88-.82-1.32-1.833-1.32-3.04 0-1.238.44-2.266 1.32-3.086.88-.82 2.014-1.23 3.403-1.23Z" fill-rule="nonzero"/><path d="m27.825 1.014 15.29 7.955a8.163 8.163 0 0 1 4.395 7.241v18.563a8.163 8.163 0 0 1-4.395 7.241l-15.29 7.956a8.163 8.163 0 0 1-7.535 0L5 42.014a8.163 8.163 0 0 1-4.395-7.24V16.21A8.163 8.163 0 0 1 5 8.969l15.29-7.955a8.163 8.163 0 0 1 7.535 0Zm-3.707 11.93L13.881 24.545a.41.41 0 0 0 .308.683h6.126l.897 10.048c.03.34.315.6.655.6h4.503c.34 0 .624-.26.654-.6l.897-10.049h6.127a.41.41 0 0 0 .308-.682L24.118 12.943Z"/></g></svg>